%TF.GenerationSoftware,KiCad,Pcbnew,7.0.10*%
%TF.CreationDate,2024-04-30T20:07:41-04:00*%
%TF.ProjectId,FutekCircuit,46757465-6b43-4697-9263-7569742e6b69,rev?*%
%TF.SameCoordinates,Original*%
%TF.FileFunction,Paste,Top*%
%TF.FilePolarity,Positive*%
%FSLAX46Y46*%
G04 Gerber Fmt 4.6, Leading zero omitted, Abs format (unit mm)*
G04 Created by KiCad (PCBNEW 7.0.10) date 2024-04-30 20:07:41*
%MOMM*%
%LPD*%
G01*
G04 APERTURE LIST*
G04 Aperture macros list*
%AMRoundRect*
0 Rectangle with rounded corners*
0 $1 Rounding radius*
0 $2 $3 $4 $5 $6 $7 $8 $9 X,Y pos of 4 corners*
0 Add a 4 corners polygon primitive as box body*
4,1,4,$2,$3,$4,$5,$6,$7,$8,$9,$2,$3,0*
0 Add four circle primitives for the rounded corners*
1,1,$1+$1,$2,$3*
1,1,$1+$1,$4,$5*
1,1,$1+$1,$6,$7*
1,1,$1+$1,$8,$9*
0 Add four rect primitives between the rounded corners*
20,1,$1+$1,$2,$3,$4,$5,0*
20,1,$1+$1,$4,$5,$6,$7,0*
20,1,$1+$1,$6,$7,$8,$9,0*
20,1,$1+$1,$8,$9,$2,$3,0*%
G04 Aperture macros list end*
%ADD10RoundRect,0.200000X-0.200000X-0.275000X0.200000X-0.275000X0.200000X0.275000X-0.200000X0.275000X0*%
%ADD11RoundRect,0.075000X-0.650000X-0.075000X0.650000X-0.075000X0.650000X0.075000X-0.650000X0.075000X0*%
%ADD12RoundRect,0.200000X0.200000X0.275000X-0.200000X0.275000X-0.200000X-0.275000X0.200000X-0.275000X0*%
%ADD13R,3.500000X1.600000*%
%ADD14R,9.750000X12.200000*%
%ADD15RoundRect,0.225000X0.225000X0.250000X-0.225000X0.250000X-0.225000X-0.250000X0.225000X-0.250000X0*%
%ADD16R,0.650000X1.525000*%
%ADD17RoundRect,0.225000X0.250000X-0.225000X0.250000X0.225000X-0.250000X0.225000X-0.250000X-0.225000X0*%
%ADD18R,0.600000X1.500000*%
%ADD19R,1.200000X1.800000*%
%ADD20RoundRect,0.200000X-0.275000X0.200000X-0.275000X-0.200000X0.275000X-0.200000X0.275000X0.200000X0*%
%ADD21R,0.600000X1.250000*%
%ADD22RoundRect,0.150000X0.512500X0.150000X-0.512500X0.150000X-0.512500X-0.150000X0.512500X-0.150000X0*%
%ADD23RoundRect,0.225000X-0.225000X-0.250000X0.225000X-0.250000X0.225000X0.250000X-0.225000X0.250000X0*%
%ADD24R,1.250000X0.600000*%
G04 APERTURE END LIST*
D10*
%TO.C,R9*%
X210853000Y-89154000D03*
X212503000Y-89154000D03*
%TD*%
%TO.C,R3*%
X196279000Y-79883000D03*
X197929000Y-79883000D03*
%TD*%
%TO.C,R2*%
X182537600Y-77241400D03*
X184187600Y-77241400D03*
%TD*%
D11*
%TO.C,U4*%
X202787000Y-105537000D03*
X202787000Y-106037000D03*
X202787000Y-106537000D03*
X202787000Y-107037000D03*
X202787000Y-107537000D03*
X207187000Y-107537000D03*
X207187000Y-107037000D03*
X207187000Y-106537000D03*
X207187000Y-106037000D03*
X207187000Y-105537000D03*
%TD*%
D12*
%TO.C,R6*%
X186321200Y-90881200D03*
X184671200Y-90881200D03*
%TD*%
D13*
%TO.C,U3*%
X189218000Y-106045000D03*
D14*
X178943000Y-103505000D03*
D13*
X189218000Y-100965000D03*
%TD*%
D10*
%TO.C,R1*%
X182506600Y-79324200D03*
X184156600Y-79324200D03*
%TD*%
D15*
%TO.C,C2*%
X194196000Y-111125000D03*
X192646000Y-111125000D03*
%TD*%
D16*
%TO.C,U2*%
X176784000Y-81624000D03*
X178054000Y-81624000D03*
X179324000Y-81624000D03*
X180594000Y-81624000D03*
X180594000Y-76200000D03*
X179324000Y-76200000D03*
X178054000Y-76200000D03*
X176784000Y-76200000D03*
%TD*%
D10*
%TO.C,R7*%
X214282000Y-89154000D03*
X215932000Y-89154000D03*
%TD*%
D12*
%TO.C,R15*%
X200418200Y-100152200D03*
X198768200Y-100152200D03*
%TD*%
D17*
%TO.C,C3*%
X195554600Y-98755200D03*
X195554600Y-100305200D03*
%TD*%
D10*
%TO.C,R11*%
X207315800Y-89255600D03*
X208965800Y-89255600D03*
%TD*%
D18*
%TO.C,J3*%
X214473000Y-81751000D03*
X213473000Y-81751000D03*
X212473000Y-81751000D03*
X211473000Y-81751000D03*
X210473000Y-81751000D03*
X209473000Y-81751000D03*
D19*
X208173000Y-77851000D03*
X215773000Y-77851000D03*
%TD*%
D10*
%TO.C,R5*%
X184696600Y-86410800D03*
X186346600Y-86410800D03*
%TD*%
D20*
%TO.C,R17*%
X211150200Y-107238800D03*
X211150200Y-108888800D03*
%TD*%
D12*
%TO.C,R14*%
X209142600Y-99415600D03*
X207492600Y-99415600D03*
%TD*%
%TO.C,R18*%
X204583800Y-101854000D03*
X202933800Y-101854000D03*
%TD*%
D21*
%TO.C,FB3*%
X196356400Y-106324400D03*
X198156400Y-106324400D03*
%TD*%
D12*
%TO.C,R16*%
X209320400Y-112293400D03*
X207670400Y-112293400D03*
%TD*%
%TO.C,R10*%
X217379800Y-104394000D03*
X215729800Y-104394000D03*
%TD*%
%TO.C,R12*%
X215093800Y-100939600D03*
X213443800Y-100939600D03*
%TD*%
%TO.C,R8*%
X218548200Y-108559600D03*
X216898200Y-108559600D03*
%TD*%
D15*
%TO.C,C1*%
X186703000Y-96012000D03*
X185153000Y-96012000D03*
%TD*%
D10*
%TO.C,R4*%
X196215000Y-76962000D03*
X197865000Y-76962000D03*
%TD*%
D22*
%TO.C,Q4\u002C3\u002C2\u002C1*%
X202481000Y-94295000D03*
X202481000Y-92395000D03*
X200206000Y-93345000D03*
%TD*%
%TO.C,Q2*%
X212641000Y-94295000D03*
X212641000Y-92395000D03*
X210366000Y-93345000D03*
%TD*%
D23*
%TO.C,C4*%
X185547000Y-111252000D03*
X187097000Y-111252000D03*
%TD*%
D22*
%TO.C,Q1*%
X217594000Y-94168000D03*
X217594000Y-92268000D03*
X215319000Y-93218000D03*
%TD*%
D10*
%TO.C,R13*%
X203233000Y-89281000D03*
X204883000Y-89281000D03*
%TD*%
D22*
%TO.C,Q3*%
X207434000Y-94295000D03*
X207434000Y-92395000D03*
X205159000Y-93345000D03*
%TD*%
D16*
%TO.C,U1*%
X192913000Y-76200000D03*
X191643000Y-76200000D03*
X190373000Y-76200000D03*
X189103000Y-76200000D03*
X189103000Y-81624000D03*
X190373000Y-81624000D03*
X191643000Y-81624000D03*
X192913000Y-81624000D03*
%TD*%
D24*
%TO.C,FB2*%
X202311000Y-110490000D03*
X202311000Y-112290000D03*
%TD*%
M02*
