%TF.GenerationSoftware,KiCad,Pcbnew,7.0.10*%
%TF.CreationDate,2024-04-30T20:07:52-04:00*%
%TF.ProjectId,FutekCircuit,46757465-6b43-4697-9263-7569742e6b69,rev?*%
%TF.SameCoordinates,Original*%
%TF.FileFunction,Plated,1,2,PTH,Drill*%
%TF.FilePolarity,Positive*%
%FSLAX46Y46*%
G04 Gerber Fmt 4.6, Leading zero omitted, Abs format (unit mm)*
G04 Created by KiCad (PCBNEW 7.0.10) date 2024-04-30 20:07:52*
%MOMM*%
%LPD*%
G01*
G04 APERTURE LIST*
%TA.AperFunction,ViaDrill*%
%ADD10C,0.400000*%
%TD*%
%TA.AperFunction,ViaDrill*%
%ADD11C,0.508000*%
%TD*%
%TA.AperFunction,ViaDrill*%
%ADD12C,0.645000*%
%TD*%
%TA.AperFunction,ComponentDrill*%
%ADD13C,1.193800*%
%TD*%
G04 APERTURE END LIST*
D10*
X176479200Y-83566000D03*
X179933600Y-74472800D03*
X184226200Y-75234800D03*
X184658000Y-84531200D03*
X185115200Y-97536000D03*
X186410600Y-88595200D03*
X189331600Y-103124000D03*
X190373000Y-74498200D03*
X190373000Y-83947000D03*
X191668400Y-74472800D03*
X194564000Y-112928400D03*
X194767200Y-79806800D03*
X194792600Y-76936600D03*
X196367400Y-81610200D03*
X200279000Y-106045000D03*
X200558400Y-113385600D03*
X201041000Y-107950000D03*
X201168000Y-105283000D03*
X201447400Y-89306400D03*
X202438000Y-95554800D03*
X202615800Y-100711000D03*
X205816200Y-104292400D03*
X207289400Y-90728800D03*
X207924400Y-95910400D03*
X208889600Y-104800400D03*
X209296000Y-101193600D03*
X210312000Y-110236000D03*
X210794600Y-90881200D03*
X211429600Y-102412800D03*
X214020400Y-95113800D03*
X214426800Y-90906600D03*
X214884000Y-106984800D03*
X215188800Y-102133400D03*
X217335100Y-105829100D03*
X218135200Y-110439200D03*
X218135200Y-111709200D03*
X218186000Y-88519000D03*
X219710000Y-94996000D03*
D11*
X192786000Y-101600000D03*
X200279000Y-96774000D03*
X204216000Y-110490000D03*
X207772000Y-110998000D03*
X212852000Y-109474000D03*
D12*
X178054000Y-74320400D03*
X180594000Y-83743800D03*
X183337200Y-112318800D03*
X187553600Y-74726800D03*
X188976000Y-108661200D03*
D13*
%TO.C,J2*%
X167513000Y-83820000D03*
X167513000Y-87320001D03*
X167513000Y-90820001D03*
%TO.C,J1*%
X167640000Y-101600000D03*
X167640000Y-105100001D03*
X167640000Y-108600001D03*
M02*
