%TF.GenerationSoftware,KiCad,Pcbnew,7.0.10*%
%TF.CreationDate,2024-04-30T20:07:41-04:00*%
%TF.ProjectId,FutekCircuit,46757465-6b43-4697-9263-7569742e6b69,rev?*%
%TF.SameCoordinates,Original*%
%TF.FileFunction,Other,User*%
%FSLAX46Y46*%
G04 Gerber Fmt 4.6, Leading zero omitted, Abs format (unit mm)*
G04 Created by KiCad (PCBNEW 7.0.10) date 2024-04-30 20:07:41*
%MOMM*%
%LPD*%
G01*
G04 APERTURE LIST*
%ADD10C,0.050000*%
%ADD11C,0.152400*%
%ADD12C,0.100000*%
G04 APERTURE END LIST*
D10*
%TO.C,R9*%
X210198000Y-88424000D02*
X213158000Y-88424000D01*
X210198000Y-89884000D02*
X210198000Y-88424000D01*
X213158000Y-88424000D02*
X213158000Y-89884000D01*
X213158000Y-89884000D02*
X210198000Y-89884000D01*
%TO.C,R3*%
X195624000Y-79153000D02*
X198584000Y-79153000D01*
X195624000Y-80613000D02*
X195624000Y-79153000D01*
X198584000Y-79153000D02*
X198584000Y-80613000D01*
X198584000Y-80613000D02*
X195624000Y-80613000D01*
%TO.C,R2*%
X181882600Y-76511400D02*
X184842600Y-76511400D01*
X181882600Y-77971400D02*
X181882600Y-76511400D01*
X184842600Y-76511400D02*
X184842600Y-77971400D01*
X184842600Y-77971400D02*
X181882600Y-77971400D01*
%TO.C,U4*%
X201807000Y-104787000D02*
X201807000Y-108287000D01*
X201807000Y-108287000D02*
X208167000Y-108287000D01*
X208167000Y-104787000D02*
X201807000Y-104787000D01*
X208167000Y-108287000D02*
X208167000Y-104787000D01*
%TO.C,R6*%
X186976200Y-91611200D02*
X184016200Y-91611200D01*
X186976200Y-90151200D02*
X186976200Y-91611200D01*
X184016200Y-91611200D02*
X184016200Y-90151200D01*
X184016200Y-90151200D02*
X186976200Y-90151200D01*
%TO.C,R1*%
X181851600Y-78594200D02*
X184811600Y-78594200D01*
X181851600Y-80054200D02*
X181851600Y-78594200D01*
X184811600Y-78594200D02*
X184811600Y-80054200D01*
X184811600Y-80054200D02*
X181851600Y-80054200D01*
D11*
%TO.C,J1*%
X170943999Y-99596001D02*
X162885999Y-99596001D01*
X162885999Y-99596001D02*
X162885999Y-110604000D01*
X170943999Y-110604000D02*
X170943999Y-99596001D01*
X162885999Y-110604000D02*
X170943999Y-110604000D01*
D10*
%TO.C,C2*%
X194901000Y-111855000D02*
X191941000Y-111855000D01*
X194901000Y-110395000D02*
X194901000Y-111855000D01*
X191941000Y-111855000D02*
X191941000Y-110395000D01*
X191941000Y-110395000D02*
X194901000Y-110395000D01*
%TO.C,U2*%
X175939000Y-82637000D02*
X175939000Y-75187000D01*
X181439000Y-82637000D02*
X175939000Y-82637000D01*
X175939000Y-75187000D02*
X181439000Y-75187000D01*
X181439000Y-75187000D02*
X181439000Y-82637000D01*
%TO.C,R7*%
X213627000Y-88424000D02*
X216587000Y-88424000D01*
X213627000Y-89884000D02*
X213627000Y-88424000D01*
X216587000Y-88424000D02*
X216587000Y-89884000D01*
X216587000Y-89884000D02*
X213627000Y-89884000D01*
%TO.C,R15*%
X201073200Y-100882200D02*
X198113200Y-100882200D01*
X201073200Y-99422200D02*
X201073200Y-100882200D01*
X198113200Y-100882200D02*
X198113200Y-99422200D01*
X198113200Y-99422200D02*
X201073200Y-99422200D01*
%TO.C,C3*%
X196284600Y-98050200D02*
X196284600Y-101010200D01*
X194824600Y-98050200D02*
X196284600Y-98050200D01*
X196284600Y-101010200D02*
X194824600Y-101010200D01*
X194824600Y-101010200D02*
X194824600Y-98050200D01*
D11*
%TO.C,J2*%
X170816999Y-81816001D02*
X162758999Y-81816001D01*
X162758999Y-81816001D02*
X162758999Y-92824000D01*
X170816999Y-92824000D02*
X170816999Y-81816001D01*
X162758999Y-92824000D02*
X170816999Y-92824000D01*
D10*
%TO.C,R11*%
X206660800Y-88525600D02*
X209620800Y-88525600D01*
X206660800Y-89985600D02*
X206660800Y-88525600D01*
X209620800Y-88525600D02*
X209620800Y-89985600D01*
X209620800Y-89985600D02*
X206660800Y-89985600D01*
%TO.C,J3*%
X217243000Y-83421000D02*
X206703000Y-83421000D01*
X217243000Y-74981000D02*
X217243000Y-83421000D01*
X217243000Y-74981000D02*
X206703000Y-74981000D01*
X206703000Y-83421000D02*
X206703000Y-74981000D01*
%TO.C,R5*%
X184041600Y-85680800D02*
X187001600Y-85680800D01*
X184041600Y-87140800D02*
X184041600Y-85680800D01*
X187001600Y-85680800D02*
X187001600Y-87140800D01*
X187001600Y-87140800D02*
X184041600Y-87140800D01*
%TO.C,R17*%
X211880200Y-106583800D02*
X211880200Y-109543800D01*
X210420200Y-106583800D02*
X211880200Y-106583800D01*
X211880200Y-109543800D02*
X210420200Y-109543800D01*
X210420200Y-109543800D02*
X210420200Y-106583800D01*
%TO.C,R14*%
X209797600Y-100145600D02*
X206837600Y-100145600D01*
X209797600Y-98685600D02*
X209797600Y-100145600D01*
X206837600Y-100145600D02*
X206837600Y-98685600D01*
X206837600Y-98685600D02*
X209797600Y-98685600D01*
%TO.C,R18*%
X205238800Y-102584000D02*
X202278800Y-102584000D01*
X205238800Y-101124000D02*
X205238800Y-102584000D01*
X202278800Y-102584000D02*
X202278800Y-101124000D01*
X202278800Y-101124000D02*
X205238800Y-101124000D01*
D12*
%TO.C,FB3*%
X195056400Y-104699400D02*
X199456400Y-104699400D01*
X195056400Y-107949400D02*
X195056400Y-104699400D01*
X199456400Y-104699400D02*
X199456400Y-107949400D01*
X199456400Y-107949400D02*
X195056400Y-107949400D01*
D10*
%TO.C,R16*%
X209975400Y-113023400D02*
X207015400Y-113023400D01*
X209975400Y-111563400D02*
X209975400Y-113023400D01*
X207015400Y-113023400D02*
X207015400Y-111563400D01*
X207015400Y-111563400D02*
X209975400Y-111563400D01*
%TO.C,R10*%
X218034800Y-105124000D02*
X215074800Y-105124000D01*
X218034800Y-103664000D02*
X218034800Y-105124000D01*
X215074800Y-105124000D02*
X215074800Y-103664000D01*
X215074800Y-103664000D02*
X218034800Y-103664000D01*
%TO.C,R12*%
X215748800Y-101669600D02*
X212788800Y-101669600D01*
X215748800Y-100209600D02*
X215748800Y-101669600D01*
X212788800Y-101669600D02*
X212788800Y-100209600D01*
X212788800Y-100209600D02*
X215748800Y-100209600D01*
%TO.C,R8*%
X219203200Y-109289600D02*
X216243200Y-109289600D01*
X219203200Y-107829600D02*
X219203200Y-109289600D01*
X216243200Y-109289600D02*
X216243200Y-107829600D01*
X216243200Y-107829600D02*
X219203200Y-107829600D01*
%TO.C,C1*%
X187408000Y-96742000D02*
X184448000Y-96742000D01*
X187408000Y-95282000D02*
X187408000Y-96742000D01*
X184448000Y-96742000D02*
X184448000Y-95282000D01*
X184448000Y-95282000D02*
X187408000Y-95282000D01*
%TO.C,R4*%
X195560000Y-76232000D02*
X198520000Y-76232000D01*
X195560000Y-77692000D02*
X195560000Y-76232000D01*
X198520000Y-76232000D02*
X198520000Y-77692000D01*
X198520000Y-77692000D02*
X195560000Y-77692000D01*
%TO.C,Q4\u002C3\u002C2\u002C1*%
X203393500Y-95045000D02*
X203393500Y-91645000D01*
X203393500Y-91645000D02*
X199293500Y-91645000D01*
X199293500Y-95045000D02*
X203393500Y-95045000D01*
X199293500Y-91645000D02*
X199293500Y-95045000D01*
%TO.C,Q2*%
X213553500Y-95045000D02*
X213553500Y-91645000D01*
X213553500Y-91645000D02*
X209453500Y-91645000D01*
X209453500Y-95045000D02*
X213553500Y-95045000D01*
X209453500Y-91645000D02*
X209453500Y-95045000D01*
%TO.C,C4*%
X184842000Y-110522000D02*
X187802000Y-110522000D01*
X184842000Y-111982000D02*
X184842000Y-110522000D01*
X187802000Y-110522000D02*
X187802000Y-111982000D01*
X187802000Y-111982000D02*
X184842000Y-111982000D01*
%TO.C,Q1*%
X218506500Y-94918000D02*
X218506500Y-91518000D01*
X218506500Y-91518000D02*
X214406500Y-91518000D01*
X214406500Y-94918000D02*
X218506500Y-94918000D01*
X214406500Y-91518000D02*
X214406500Y-94918000D01*
%TO.C,R13*%
X202578000Y-88551000D02*
X205538000Y-88551000D01*
X202578000Y-90011000D02*
X202578000Y-88551000D01*
X205538000Y-88551000D02*
X205538000Y-90011000D01*
X205538000Y-90011000D02*
X202578000Y-90011000D01*
%TO.C,Q3*%
X208346500Y-95045000D02*
X208346500Y-91645000D01*
X208346500Y-91645000D02*
X204246500Y-91645000D01*
X204246500Y-95045000D02*
X208346500Y-95045000D01*
X204246500Y-91645000D02*
X204246500Y-95045000D01*
%TO.C,U1*%
X193758000Y-75187000D02*
X193758000Y-82637000D01*
X188258000Y-75187000D02*
X193758000Y-75187000D01*
X193758000Y-82637000D02*
X188258000Y-82637000D01*
X188258000Y-82637000D02*
X188258000Y-75187000D01*
D12*
%TO.C,FB2*%
X203936000Y-109190000D02*
X203936000Y-113590000D01*
X200686000Y-109190000D02*
X203936000Y-109190000D01*
X203936000Y-113590000D02*
X200686000Y-113590000D01*
X200686000Y-113590000D02*
X200686000Y-109190000D01*
%TD*%
M02*
