%TF.GenerationSoftware,KiCad,Pcbnew,7.0.10*%
%TF.CreationDate,2024-04-30T20:07:41-04:00*%
%TF.ProjectId,FutekCircuit,46757465-6b43-4697-9263-7569742e6b69,rev?*%
%TF.SameCoordinates,Original*%
%TF.FileFunction,Copper,L2,Bot*%
%TF.FilePolarity,Positive*%
%FSLAX46Y46*%
G04 Gerber Fmt 4.6, Leading zero omitted, Abs format (unit mm)*
G04 Created by KiCad (PCBNEW 7.0.10) date 2024-04-30 20:07:41*
%MOMM*%
%LPD*%
G01*
G04 APERTURE LIST*
%TA.AperFunction,ComponentPad*%
%ADD10C,1.701800*%
%TD*%
%TA.AperFunction,ViaPad*%
%ADD11C,0.800000*%
%TD*%
%TA.AperFunction,ViaPad*%
%ADD12C,1.290000*%
%TD*%
%TA.AperFunction,Conductor*%
%ADD13C,0.250000*%
%TD*%
%TA.AperFunction,Conductor*%
%ADD14C,0.431364*%
%TD*%
G04 APERTURE END LIST*
D10*
%TO.P,J1,1,Pin_1*%
%TO.N,PS+*%
X167640000Y-101600000D03*
%TO.P,J1,2,Pin_2*%
%TO.N,GND*%
X167640000Y-105100001D03*
%TO.P,J1,3,Pin_3*%
%TO.N,PS-*%
X167640000Y-108600001D03*
%TD*%
%TO.P,J2,1,Pin_1*%
%TO.N,FutekSIG*%
X167513000Y-83820000D03*
%TO.P,J2,2,Pin_2*%
%TO.N,GND*%
X167513000Y-87320001D03*
%TO.P,J2,3,Pin_3*%
%TO.N,PS+*%
X167513000Y-90820001D03*
%TD*%
D11*
%TO.N,VDD*%
X212852000Y-109474000D03*
X192786000Y-101600000D03*
X204216000Y-110490000D03*
X207772000Y-110998000D03*
%TO.N,Vreg*%
X209296000Y-101193600D03*
X215188800Y-102133400D03*
X200558400Y-113385600D03*
X218135200Y-111709200D03*
X185115200Y-97536000D03*
X194564000Y-112928400D03*
X218135200Y-110439200D03*
X217335100Y-105829100D03*
X189331600Y-103124000D03*
%TO.N,V3.3*%
X218186000Y-88519000D03*
X214426800Y-90906600D03*
X201447400Y-89306400D03*
X210794600Y-90881200D03*
X207924400Y-95910400D03*
X207289400Y-90728800D03*
X214020400Y-95113800D03*
X202438000Y-95554800D03*
X219710000Y-94996000D03*
%TO.N,SCL5*%
X208889600Y-104800400D03*
X214884000Y-106984800D03*
X210312000Y-110236000D03*
%TO.N,ADDR5*%
X201168000Y-105283000D03*
X205816200Y-104292400D03*
X211429600Y-102412800D03*
%TO.N,ALERT5*%
X200279000Y-96774000D03*
X200279000Y-106045000D03*
X202615800Y-100711000D03*
%TO.N,A0*%
X186410600Y-88595200D03*
X201041000Y-107950000D03*
D12*
%TO.N,PS+*%
X178054000Y-74320400D03*
X188976000Y-108661200D03*
X183337200Y-112318800D03*
%TO.N,PS-*%
X187553600Y-74726800D03*
X180594000Y-83743800D03*
D11*
%TO.N,Net-(U1-+)*%
X184226200Y-75234800D03*
X190373000Y-74498200D03*
%TO.N,Net-(U2--)*%
X176479200Y-83566000D03*
X179933600Y-74472800D03*
%TO.N,Net-(U1--)*%
X194767200Y-79806800D03*
X191668400Y-74472800D03*
X194792600Y-76936600D03*
%TO.N,Net-(R3-Pad2)*%
X196367400Y-81610200D03*
X190373000Y-83947000D03*
X184658000Y-84531200D03*
%TD*%
D13*
%TO.N,VDD*%
X207772000Y-110998000D02*
X211328000Y-110998000D01*
X211328000Y-110998000D02*
X212852000Y-109474000D01*
%TO.N,SCL5*%
X208889600Y-108407200D02*
X208889600Y-104800400D01*
X210312000Y-110236000D02*
X210312000Y-109829600D01*
X210312000Y-109829600D02*
X208889600Y-108407200D01*
%TO.N,VDD*%
X204216000Y-110490000D02*
X203200000Y-109474000D01*
X203200000Y-109474000D02*
X200660000Y-109474000D01*
X200660000Y-109474000D02*
X192786000Y-101600000D01*
X207772000Y-110998000D02*
X204724000Y-110998000D01*
X204724000Y-110998000D02*
X204216000Y-110490000D01*
%TO.N,Vreg*%
X192913000Y-107569000D02*
X192913000Y-104521000D01*
X216941400Y-104368600D02*
X216941400Y-104444800D01*
X201676000Y-112268000D02*
X200558400Y-113385600D01*
X218135200Y-106629200D02*
X217335100Y-105829100D01*
X200406000Y-113538000D02*
X200558400Y-113385600D01*
X215188800Y-102133400D02*
X215188800Y-102616000D01*
X194056000Y-112420400D02*
X194056000Y-108712000D01*
X209296000Y-101193600D02*
X209905600Y-100584000D01*
X215188800Y-102616000D02*
X216941400Y-104368600D01*
X214426800Y-111709200D02*
X213868000Y-112268000D01*
X194564000Y-112928400D02*
X194056000Y-112420400D01*
X195173600Y-113538000D02*
X200406000Y-113538000D01*
X218135200Y-111709200D02*
X214426800Y-111709200D01*
X194056000Y-108712000D02*
X192913000Y-107569000D01*
X185115200Y-98907600D02*
X185115200Y-97536000D01*
X194564000Y-112928400D02*
X195173600Y-113538000D01*
X189331600Y-103124000D02*
X185115200Y-98907600D01*
X216941400Y-104444800D02*
X217335100Y-104838500D01*
X192913000Y-104521000D02*
X191516000Y-103124000D01*
X209905600Y-100584000D02*
X213639400Y-100584000D01*
X213868000Y-112268000D02*
X201676000Y-112268000D01*
X213639400Y-100584000D02*
X215188800Y-102133400D01*
X217335100Y-104838500D02*
X217335100Y-105829100D01*
X218135200Y-110439200D02*
X218135200Y-106629200D01*
X191516000Y-103124000D02*
X189331600Y-103124000D01*
%TO.N,V3.3*%
X214426800Y-90906600D02*
X214325200Y-90805000D01*
X219710000Y-94996000D02*
X214138200Y-94996000D01*
X201701400Y-89560400D02*
X201447400Y-89306400D01*
X208721000Y-95113800D02*
X207924400Y-95910400D01*
X214020400Y-95113800D02*
X208721000Y-95113800D01*
X206121000Y-89560400D02*
X201701400Y-89560400D01*
X207467200Y-90551000D02*
X207289400Y-90728800D01*
X219710000Y-90043000D02*
X219710000Y-94996000D01*
X210794600Y-90881200D02*
X210464400Y-90551000D01*
X214426800Y-90906600D02*
X215798400Y-90906600D01*
X215798400Y-90906600D02*
X218186000Y-88519000D01*
X207924400Y-95910400D02*
X207568800Y-95554800D01*
X210870800Y-90805000D02*
X210794600Y-90881200D01*
X210464400Y-90551000D02*
X207467200Y-90551000D01*
X214138200Y-94996000D02*
X214020400Y-95113800D01*
X207568800Y-95554800D02*
X202438000Y-95554800D01*
X207289400Y-90728800D02*
X206121000Y-89560400D01*
X214325200Y-90805000D02*
X210870800Y-90805000D01*
X218186000Y-88519000D02*
X219710000Y-90043000D01*
%TO.N,SCL5*%
X214884000Y-106984800D02*
X212420200Y-104521000D01*
X212420200Y-104521000D02*
X209169000Y-104521000D01*
X209169000Y-104521000D02*
X208889600Y-104800400D01*
%TO.N,ADDR5*%
X204038200Y-102514400D02*
X202895200Y-102514400D01*
X205816200Y-104292400D02*
X207645000Y-102463600D01*
X205816200Y-104292400D02*
X204038200Y-102514400D01*
X202895200Y-102514400D02*
X202438000Y-102971600D01*
X202438000Y-104013000D02*
X201168000Y-105283000D01*
X211378800Y-102463600D02*
X211429600Y-102412800D01*
X207645000Y-102463600D02*
X211378800Y-102463600D01*
X202438000Y-102971600D02*
X202438000Y-104013000D01*
%TO.N,ALERT5*%
X202615800Y-99110800D02*
X200279000Y-96774000D01*
X202615800Y-101930200D02*
X200304400Y-104241600D01*
X202615800Y-100711000D02*
X202615800Y-101930200D01*
X202615800Y-100711000D02*
X202615800Y-99110800D01*
X200304400Y-106019600D02*
X200279000Y-106045000D01*
X200304400Y-104241600D02*
X200304400Y-106019600D01*
%TO.N,A0*%
X188468000Y-95377000D02*
X201041000Y-107950000D01*
X188468000Y-89154000D02*
X188468000Y-95377000D01*
X186410600Y-88595200D02*
X187909200Y-88595200D01*
X187909200Y-88595200D02*
X188468000Y-89154000D01*
D14*
%TO.N,PS+*%
X172212000Y-86121001D02*
X167513000Y-90820001D01*
X167513000Y-90820001D02*
X167513000Y-101473000D01*
X170586400Y-104546400D02*
X167640000Y-101600000D01*
X172212000Y-74218800D02*
X172212000Y-86121001D01*
X183337200Y-112318800D02*
X184200800Y-112318800D01*
X170586400Y-112369600D02*
X170586400Y-104546400D01*
X184200800Y-112318800D02*
X187858400Y-108661200D01*
X183286400Y-112369600D02*
X170586400Y-112369600D01*
X183337200Y-112318800D02*
X183286400Y-112369600D01*
X167513000Y-101473000D02*
X167640000Y-101600000D01*
X187858400Y-108661200D02*
X188976000Y-108661200D01*
X177952400Y-74218800D02*
X172212000Y-74218800D01*
X178054000Y-74320400D02*
X177952400Y-74218800D01*
%TO.N,PS-*%
X180924200Y-83743800D02*
X187553600Y-77114400D01*
X187553600Y-77114400D02*
X187553600Y-74726800D01*
X180594000Y-83743800D02*
X180924200Y-83743800D01*
D13*
%TO.N,Net-(U1-+)*%
X186537600Y-73558400D02*
X189433200Y-73558400D01*
X184861200Y-75234800D02*
X186537600Y-73558400D01*
X184226200Y-75234800D02*
X184861200Y-75234800D01*
X189433200Y-73558400D02*
X190373000Y-74498200D01*
%TO.N,Net-(U2--)*%
X176479200Y-80568800D02*
X176479200Y-83566000D01*
X179933600Y-74472800D02*
X178054000Y-76352400D01*
X178054000Y-76352400D02*
X178054000Y-78994000D01*
X178054000Y-78994000D02*
X176479200Y-80568800D01*
%TO.N,Net-(U1--)*%
X194792600Y-76936600D02*
X194792600Y-75209400D01*
X194767200Y-76962000D02*
X194767200Y-79806800D01*
X194792600Y-75209400D02*
X194056000Y-74472800D01*
X194792600Y-76936600D02*
X194767200Y-76962000D01*
X194056000Y-74472800D02*
X191668400Y-74472800D01*
%TO.N,Net-(R3-Pad2)*%
X192913000Y-83947000D02*
X190373000Y-83947000D01*
X195249800Y-81610200D02*
X192913000Y-83947000D01*
X184658000Y-84531200D02*
X185267600Y-83921600D01*
X185267600Y-83921600D02*
X190347600Y-83921600D01*
X190347600Y-83921600D02*
X190373000Y-83947000D01*
X196367400Y-81610200D02*
X195249800Y-81610200D01*
%TD*%
%TA.AperFunction,Conductor*%
%TO.N,V3.3*%
G36*
X219271276Y-87904106D02*
G01*
X219317415Y-87956575D01*
X219329000Y-88008908D01*
X219329000Y-96015000D01*
X219309315Y-96082039D01*
X219256511Y-96127794D01*
X219205000Y-96139000D01*
X200974194Y-96139000D01*
X200907155Y-96119315D01*
X200890194Y-96104901D01*
X200889695Y-96105456D01*
X200884864Y-96101106D01*
X200731734Y-95989851D01*
X200731729Y-95989848D01*
X200558807Y-95912857D01*
X200558802Y-95912855D01*
X200413001Y-95881865D01*
X200373646Y-95873500D01*
X200184354Y-95873500D01*
X200151897Y-95880398D01*
X199999197Y-95912855D01*
X199999192Y-95912857D01*
X199826270Y-95989848D01*
X199826265Y-95989851D01*
X199673135Y-96101106D01*
X199668305Y-96105456D01*
X199666702Y-96103676D01*
X199616457Y-96134624D01*
X199583806Y-96139000D01*
X198498000Y-96139000D01*
X198430961Y-96119315D01*
X198385206Y-96066511D01*
X198374000Y-96015000D01*
X198374000Y-88208571D01*
X198393685Y-88141532D01*
X198446489Y-88095777D01*
X198495339Y-88084599D01*
X201929209Y-88011016D01*
X201930811Y-88010994D01*
X219204097Y-87884911D01*
X219271276Y-87904106D01*
G37*
%TD.AperFunction*%
%TD*%
%TA.AperFunction,Conductor*%
%TO.N,Vreg*%
G36*
X219333389Y-98295305D02*
G01*
X219399979Y-98316458D01*
X219444563Y-98370254D01*
X219454657Y-98420633D01*
X219304921Y-112096489D01*
X219284503Y-112163309D01*
X219231201Y-112208483D01*
X219182896Y-112219115D01*
X216224953Y-112266067D01*
X216157610Y-112247449D01*
X216111022Y-112195378D01*
X216099057Y-112146302D01*
X215900000Y-106299000D01*
X215900000Y-106298999D01*
X212356699Y-102389815D01*
X212326261Y-102326924D01*
X212325257Y-102319533D01*
X212315274Y-102224544D01*
X212256779Y-102044516D01*
X212162133Y-101880584D01*
X212035471Y-101739912D01*
X212035470Y-101739911D01*
X211882334Y-101628651D01*
X211882329Y-101628648D01*
X211709407Y-101551657D01*
X211709403Y-101551656D01*
X211609349Y-101530388D01*
X211547867Y-101497195D01*
X211543256Y-101492374D01*
X211226402Y-101142801D01*
X211226400Y-101142800D01*
X209747975Y-100708659D01*
X208109723Y-100227585D01*
X208050946Y-100189810D01*
X208021923Y-100126253D01*
X208020877Y-100115910D01*
X207906894Y-98178202D01*
X207922608Y-98110125D01*
X207972634Y-98061348D01*
X208033401Y-98046953D01*
X219333389Y-98295305D01*
G37*
%TD.AperFunction*%
%TD*%
M02*
